# xmcd
#
# Track frame offsets:
#	150
#	11649
#	26036
#	38484
#	52903
#	66964
#	79951
#	89893
#	99466
#	115938
#	128179
#	140531
#	152945
#	165981
#	182677
#	193346
#	210785
#	224198
#	236008
#	250742
#
# Disc length: 3558 seconds
#
# Revision: 1
# Processed by: cddbd v1.5.1PL0 Copyright (c) Steve Scherf et al.
# Submitted via: audiograbber 1.80
#
DISCID=1e0de414
DTITLE=Merle Haggard - 40 Greatest Hits [CD1]
DYEAR=1900
DGENRE=
TTITLE0=My Friends Are Gonna Be Strangers
TTITLE1=I'm A Lonesome Fugitive
TTITLE2=The Bottle Let Me Down
TTITLE3=Branded Man
TTITLE4=I Threw Away The Rose
TTITLE5=Sing Me Back Home
TTITLE6=Mama Tried
TTITLE7=The Legend Of Bonnie And Clyde
TTITLE8=Hungry Eyes
TTITLE9=Take A Lot Of Pride In What I Am
TTITLE10=Okie From Muskogee
TTITLE11=Workin' Man Blues
TTITLE12=The Fighting' Side Of Me
TTITLE13=Daddy Frank (The Guitar Man)
TTITLE14=Someday We'll Look Back
TTITLE15=Peach Pickin' Time In Georgia
TTITLE16=The Farmer's Daughter
TTITLE17=Carolyn
TTITLE18=If It's Wrong To Love You
TTITLE19=It's Not Love (But It's Not Bad)
EXTD=
EXTT0=
EXTT1=
EXTT2=
EXTT3=
EXTT4=
EXTT5=
EXTT6=
EXTT7=
EXTT8=
EXTT9=
EXTT10=
EXTT11=
EXTT12=
EXTT13=
EXTT14=
EXTT15=
EXTT16=
EXTT17=
EXTT18=
EXTT19=
PLAYORDER=
